<?xml version="1.0" encoding="UTF-8" standalone="no"?>
<svg
   xmlns:dc="http://purl.org/dc/elements/1.1/"
   xmlns:cc="http://creativecommons.org/ns#"
   xmlns:rdf="http://www.w3.org/1999/02/22-rdf-syntax-ns#"
   xmlns:svg="http://www.w3.org/2000/svg"
   xmlns="http://www.w3.org/2000/svg"
   xmlns:xlink="http://www.w3.org/1999/xlink"
   id="svg8"
   version="1.1"
   viewBox="0 0 70.599159 40.178082"
   height="40.178082mm"
   width="70.599159mm">
  <defs
     id="defs2" />
  <metadata
     id="metadata5">
    <rdf:RDF>
      <cc:Work
         rdf:about="">
        <dc:format>image/svg+xml</dc:format>
        <dc:type
           rdf:resource="http://purl.org/dc/dcmitype/StillImage" />
        <dc:title></dc:title>
      </cc:Work>
    </rdf:RDF>
  </metadata>
  <g
     transform="translate(-77.628287,-129.47921)"
     id="layer1">
    <image
       xlink:href="screenshot_list.jpg"
       y="131.27617"
       x="79.492294"
       id="image18"
       preserveAspectRatio="none"
       height="38.138134"
       width="67.801132" />
    <ellipse
       ry="2.6748157"
       rx="17.245165"
       cy="132.25986"
       cx="113.01998"
       id="path32"
       style="opacity:1;vector-effect:none;fill:none;fill-opacity:1;fill-rule:nonzero;stroke:#00ccff;stroke-width:0.21166667;stroke-linecap:butt;stroke-linejoin:miter;stroke-miterlimit:4;stroke-dasharray:none;stroke-dashoffset:0;stroke-opacity:1;marker:none" />
    <ellipse
       style="opacity:1;vector-effect:none;fill:none;fill-opacity:1;fill-rule:nonzero;stroke:#00ccff;stroke-width:0.21166667;stroke-linecap:butt;stroke-linejoin:miter;stroke-miterlimit:4;stroke-dasharray:none;stroke-dashoffset:0;stroke-opacity:1;marker:none"
       id="ellipse839"
       cx="113.01998"
       cy="165.5403"
       rx="14.906556"
       ry="3.3429897" />
    <ellipse
       ry="3.3429897"
       rx="5.7859836"
       cy="166.20847"
       cx="83.520103"
       id="ellipse841"
       style="opacity:1;vector-effect:none;fill:none;fill-opacity:1;fill-rule:nonzero;stroke:#00ccff;stroke-width:0.21166667;stroke-linecap:butt;stroke-linejoin:miter;stroke-miterlimit:4;stroke-dasharray:none;stroke-dashoffset:0;stroke-opacity:1;marker:none" />
    <ellipse
       style="opacity:1;vector-effect:none;fill:none;fill-opacity:1;fill-rule:nonzero;stroke:#00ccff;stroke-width:0.21166669;stroke-linecap:butt;stroke-linejoin:miter;stroke-miterlimit:4;stroke-dasharray:none;stroke-dashoffset:0;stroke-opacity:1;marker:none"
       id="ellipse843"
       cx="143.36319"
       cy="166.20847"
       rx="4.7584205"
       ry="3.3429897" />
    <ellipse
       style="opacity:1;vector-effect:none;fill:none;fill-opacity:1;fill-rule:nonzero;stroke:#00ccff;stroke-width:0.21166667;stroke-linecap:butt;stroke-linejoin:miter;stroke-miterlimit:4;stroke-dasharray:none;stroke-dashoffset:0;stroke-opacity:1;marker:none"
       id="ellipse843-3"
       cx="113.39286"
       cy="150.34523"
       rx="32.780205"
       ry="8.5881538" />
    <ellipse
       ry="10.223059"
       rx="10.089424"
       cy="150.87439"
       cx="113.39286"
       id="path869"
       style="opacity:1;vector-effect:none;fill:none;fill-opacity:1;fill-rule:nonzero;stroke:#00ccff;stroke-width:0.21166667;stroke-linecap:butt;stroke-linejoin:miter;stroke-miterlimit:4;stroke-dasharray:none;stroke-dashoffset:0;stroke-opacity:1;marker:none" />
    <circle
       r="1.2444737"
       cy="134.49791"
       cx="103.95492"
       id="path895"
       style="opacity:1;vector-effect:none;fill:#00ccff;fill-opacity:1;fill-rule:nonzero;stroke:none;stroke-width:0.21166667;stroke-linecap:butt;stroke-linejoin:miter;stroke-miterlimit:4;stroke-dasharray:none;stroke-dashoffset:0;stroke-opacity:1;marker:none" />
    <ellipse
       ry="1.6558508"
       rx="3.4306712"
       cy="138.39223"
       cx="110.49924"
       id="path32-7"
       style="opacity:1;vector-effect:none;fill:none;fill-opacity:1;fill-rule:nonzero;stroke:#00ccff;stroke-width:0.21166669;stroke-linecap:butt;stroke-linejoin:miter;stroke-miterlimit:4;stroke-dasharray:none;stroke-dashoffset:0;stroke-opacity:1;marker:none" />
    <ellipse
       style="opacity:1;vector-effect:none;fill:none;fill-opacity:1;fill-rule:nonzero;stroke:#00ccff;stroke-width:0.21166669;stroke-linecap:butt;stroke-linejoin:miter;stroke-miterlimit:4;stroke-dasharray:none;stroke-dashoffset:0;stroke-opacity:1;marker:none"
       id="ellipse936"
       cx="117.31462"
       cy="138.39223"
       rx="3.4306712"
       ry="1.6558508" />
    <circle
       r="1.2444737"
       cy="138.40895"
       cx="106.64054"
       id="path895-5"
       style="opacity:1;vector-effect:none;fill:#00ccff;fill-opacity:1;fill-rule:nonzero;stroke:none;stroke-width:0.21166667;stroke-linecap:butt;stroke-linejoin:miter;stroke-miterlimit:4;stroke-dasharray:none;stroke-dashoffset:0;stroke-opacity:1;marker:none" />
    <circle
       style="opacity:1;vector-effect:none;fill:#00ccff;fill-opacity:1;fill-rule:nonzero;stroke:none;stroke-width:0.21166667;stroke-linecap:butt;stroke-linejoin:miter;stroke-miterlimit:4;stroke-dasharray:none;stroke-dashoffset:0;stroke-opacity:1;marker:none"
       id="circle953"
       cx="120.27129"
       cy="138.40895"
       r="1.2444737" />
    <circle
       r="1.2444737"
       cy="145.59181"
       cx="85.927155"
       id="path895-3"
       style="opacity:1;vector-effect:none;fill:#00ccff;fill-opacity:1;fill-rule:nonzero;stroke:none;stroke-width:0.21166667;stroke-linecap:butt;stroke-linejoin:miter;stroke-miterlimit:4;stroke-dasharray:none;stroke-dashoffset:0;stroke-opacity:1;marker:none" />
    <circle
       r="1.2444737"
       cy="147.19543"
       cx="103.96785"
       id="path895-56"
       style="opacity:1;vector-effect:none;fill:#00ccff;fill-opacity:1;fill-rule:nonzero;stroke:none;stroke-width:0.21166667;stroke-linecap:butt;stroke-linejoin:miter;stroke-miterlimit:4;stroke-dasharray:none;stroke-dashoffset:0;stroke-opacity:1;marker:none" />
    <circle
       r="1.2444737"
       cy="163.9666"
       cx="87.998489"
       id="path895-2"
       style="opacity:1;vector-effect:none;fill:#00ccff;fill-opacity:1;fill-rule:nonzero;stroke:none;stroke-width:0.21166667;stroke-linecap:butt;stroke-linejoin:miter;stroke-miterlimit:4;stroke-dasharray:none;stroke-dashoffset:0;stroke-opacity:1;marker:none" />
    <circle
       r="1.2444737"
       cy="163.9666"
       cx="99.891983"
       id="path895-9"
       style="opacity:1;vector-effect:none;fill:#00ccff;fill-opacity:1;fill-rule:nonzero;stroke:none;stroke-width:0.21166667;stroke-linecap:butt;stroke-linejoin:miter;stroke-miterlimit:4;stroke-dasharray:none;stroke-dashoffset:0;stroke-opacity:1;marker:none" />
    <circle
       r="1.2444737"
       cy="167.30411"
       cx="138.91948"
       id="path895-1"
       style="opacity:1;vector-effect:none;fill:#00ccff;fill-opacity:1;fill-rule:nonzero;stroke:none;stroke-width:0.21166667;stroke-linecap:butt;stroke-linejoin:miter;stroke-miterlimit:4;stroke-dasharray:none;stroke-dashoffset:0;stroke-opacity:1;marker:none" />
    <g
       id="text987"
       style="font-style:normal;font-variant:normal;font-weight:normal;font-stretch:normal;font-size:2.11666656px;line-height:1.25;font-family:Impact;-inkscape-font-specification:Impact;letter-spacing:0px;word-spacing:0px;fill:#ffffff;fill-opacity:1;stroke:none;stroke-width:0.26458332"
       aria-label="1">
      <path
         id="path1067"
         style="font-size:2.11666656px;fill:#ffffff;stroke-width:0.26458332"
         d="m 104.30787,133.66127 v 1.67328 h -0.41754 v -0.8971 q 0,-0.19431 -0.009,-0.23358 -0.009,-0.0393 -0.0517,-0.0589 -0.0413,-0.0207 -0.18604,-0.0207 h -0.0413 v -0.19534 q 0.30283,-0.0651 0.45992,-0.26768 z" />
    </g>
    <g
       id="text987-2"
       style="font-style:normal;font-variant:normal;font-weight:normal;font-stretch:normal;font-size:2.11666656px;line-height:1.25;font-family:Impact;-inkscape-font-specification:Impact;letter-spacing:0px;word-spacing:0px;fill:#ffffff;fill-opacity:1;stroke:none;stroke-width:0.26458332"
       aria-label="2">
      <path
         id="path1064"
         style="font-size:2.11666656px;fill:#ffffff;stroke-width:0.26458332"
         d="m 107.08134,138.97636 v 0.28525 h -0.91881 v -0.23874 q 0.40824,-0.66766 0.48473,-0.82579 0.0775,-0.15917 0.0775,-0.24805 0,-0.0682 -0.0238,-0.10129 -0.0227,-0.0341 -0.0703,-0.0341 -0.0475,0 -0.0713,0.0372 -0.0227,0.0372 -0.0227,0.14779 v 0.15916 h -0.37414 v -0.061 q 0,-0.14056 0.0145,-0.22118 0.0145,-0.0816 0.0713,-0.1602 0.0568,-0.0786 0.1478,-0.11885 0.091,-0.0403 0.21807,-0.0403 0.24908,0 0.37621,0.12402 0.12815,0.12299 0.12815,0.31213 0,0.14366 -0.0723,0.30386 -0.0713,0.16019 -0.42272,0.68006 z" />
    </g>
    <g
       id="text987-0"
       style="font-style:normal;font-variant:normal;font-weight:normal;font-stretch:normal;font-size:2.11666656px;line-height:1.25;font-family:Impact;-inkscape-font-specification:Impact;letter-spacing:0px;word-spacing:0px;fill:#ffffff;fill-opacity:1;stroke:none;stroke-width:0.26458332"
       aria-label="3">
      <path
         id="path1061"
         style="font-size:2.11666656px;fill:#ffffff;stroke-width:0.26458332"
         d="m 120.57566,138.29784 q 0.0951,0.032 0.14159,0.10542 0.0465,0.0724 0.0465,0.34107 0,0.19947 -0.0455,0.31006 -0.0455,0.10955 -0.1571,0.16743 -0.11162,0.0568 -0.28629,0.0568 -0.19844,0 -0.31212,-0.0661 -0.11266,-0.0672 -0.14883,-0.1633 -0.0351,-0.0971 -0.0351,-0.3359 v -0.13229 h 0.41754 v 0.27182 q 0,0.10852 0.0124,0.13849 0.0134,0.0289 0.0579,0.0289 0.0486,0 0.0641,-0.0372 0.0155,-0.0372 0.0155,-0.1943 v -0.11575 q 0,-0.0961 -0.0217,-0.14056 -0.0217,-0.0444 -0.0641,-0.0579 -0.0424,-0.0145 -0.16433,-0.0165 v -0.24288 q 0.14883,0 0.18397,-0.0114 0.0351,-0.0114 0.0506,-0.0496 0.0155,-0.0382 0.0155,-0.11989 v -0.093 q 0,-0.0879 -0.0186,-0.11576 -0.0176,-0.0279 -0.0558,-0.0279 -0.0434,0 -0.0599,0.03 -0.0155,0.0289 -0.0155,0.12506 v 0.13746 h -0.41754 v -0.14263 q 0,-0.23978 0.10955,-0.3235 0.10956,-0.0847 0.3483,-0.0847 0.29869,0 0.40514,0.11679 0.10646,0.11679 0.10646,0.32453 0,0.14056 -0.0382,0.20361 -0.0382,0.062 -0.13436,0.11368 z" />
    </g>
    <g
       id="text987-3"
       style="font-style:normal;font-variant:normal;font-weight:normal;font-stretch:normal;font-size:2.11666656px;line-height:1.25;font-family:Impact;-inkscape-font-specification:Impact;letter-spacing:0px;word-spacing:0px;fill:#ffffff;fill-opacity:1;stroke:none;stroke-width:0.26458332"
       aria-label="5">
      <path
         id="path1058"
         style="font-size:2.11666656px;fill:#ffffff;stroke-width:0.26458332"
         d="m 104.38592,146.34277 v 0.26768 h -0.5178 v 0.28422 q 0.0971,-0.11472 0.25012,-0.11472 0.17259,0 0.26044,0.0971 0.0889,0.0961 0.0889,0.37104 v 0.23875 q 0,0.17776 -0.0176,0.26148 -0.0165,0.0827 -0.0724,0.15399 -0.0558,0.0703 -0.15606,0.10852 -0.0992,0.0372 -0.24288,0.0372 -0.16123,0 -0.28422,-0.0558 -0.12299,-0.0568 -0.17467,-0.16846 -0.0517,-0.11163 -0.0517,-0.3452 v -0.0909 h 0.41754 v 0.10438 q 0,0.16227 0.0114,0.23048 0.0114,0.0682 0.0786,0.0682 0.031,0 0.0496,-0.0196 0.0196,-0.0196 0.0207,-0.0424 0.002,-0.0227 0.004,-0.1974 v -0.33177 q 0,-0.094 -0.0196,-0.12815 -0.0196,-0.0341 -0.0651,-0.0341 -0.0289,0 -0.0486,0.0176 -0.0196,0.0176 -0.0258,0.0382 -0.005,0.0196 -0.005,0.093 h -0.41341 l 0.0176,-0.84336 z" />
    </g>
    <g
       id="text987-06"
       style="font-style:normal;font-variant:normal;font-weight:normal;font-stretch:normal;font-size:2.11666656px;line-height:1.25;font-family:Impact;-inkscape-font-specification:Impact;letter-spacing:0px;word-spacing:0px;fill:#ffffff;fill-opacity:1;stroke:none;stroke-width:0.26458332"
       aria-label="4">
      <path
         id="path1055"
         style="font-size:2.11666656px;fill:#ffffff;stroke-width:0.26458332"
         d="m 86.324548,144.75517 v 1.09347 h 0.118856 v 0.28526 h -0.118856 v 0.29455 h -0.417546 v -0.29455 h -0.496093 v -0.28526 l 0.360701,-1.09347 z m -0.417546,1.09347 v -0.7121 l -0.183968,0.7121 z" />
    </g>
    <g
       id="text987-6"
       style="font-style:normal;font-variant:normal;font-weight:normal;font-stretch:normal;font-size:2.11666656px;line-height:1.25;font-family:Impact;-inkscape-font-specification:Impact;letter-spacing:0px;word-spacing:0px;fill:#ffffff;fill-opacity:1;stroke:none;stroke-width:0.26458332"
       aria-label="6">
      <path
         id="path1070"
         style="font-size:2.11666656px;fill:#ffffff;stroke-width:0.26458332"
         d="m 88.49975,163.57489 h -0.417545 q 0,-0.11679 -0.0031,-0.14676 -0.0021,-0.031 -0.02481,-0.0517 -0.0217,-0.0207 -0.05994,-0.0207 -0.03204,0 -0.05271,0.0196 -0.02067,0.0196 -0.02377,0.0506 -0.0031,0.031 -0.0031,0.12506 v 0.26665 q 0.03204,-0.0672 0.09405,-0.10025 0.06201,-0.0341 0.152962,-0.0341 0.114722,0 0.202572,0.062 0.08785,0.062 0.111621,0.14883 0.02377,0.0868 0.02377,0.23461 v 0.13333 q 0,0.1757 -0.01344,0.26148 -0.01344,0.0858 -0.07235,0.15916 -0.05788,0.0724 -0.160197,0.11266 -0.101285,0.0403 -0.236678,0.0403 -0.168465,0 -0.275952,-0.0465 -0.107487,-0.0465 -0.166398,-0.13333 -0.05788,-0.0879 -0.06821,-0.18397 -0.0093,-0.0961 -0.0093,-0.3731 v -0.23151 q 0,-0.29869 0.0083,-0.39894 0.0093,-0.10129 0.07235,-0.19121 0.06305,-0.0899 0.171565,-0.13435 0.109554,-0.0455 0.252181,-0.0455 0.1757,0 0.288355,0.0568 0.112655,0.0568 0.16123,0.16019 0.04858,0.10335 0.04858,0.26045 z m -0.417545,0.52193 q 0,-0.0889 -0.01964,-0.12195 -0.01964,-0.0331 -0.06408,-0.0331 -0.04341,0 -0.06408,0.032 -0.01964,0.031 -0.01964,0.12299 v 0.30283 q 0,0.11058 0.0186,0.14469 0.01964,0.0341 0.06408,0.0341 0.02687,0 0.05581,-0.0258 0.02894,-0.0269 0.02894,-0.14263 z" />
    </g>
    <g
       id="text987-8"
       style="font-style:normal;font-variant:normal;font-weight:normal;font-stretch:normal;font-size:2.11666656px;line-height:1.25;font-family:Impact;-inkscape-font-specification:Impact;letter-spacing:0px;word-spacing:0px;fill:#ffffff;fill-opacity:1;stroke:none;stroke-width:0.26458332"
       aria-label="7">
      <path
         id="path1073"
         style="font-size:2.11666656px;fill:#ffffff;stroke-width:0.26458332"
         d="m 100.29092,163.12996 v 0.36483 l -0.26665,1.30845 h -0.415476 l 0.296623,-1.37253 h -0.412378 v -0.30075 z" />
    </g>
    <g
       transform="translate(1.2756696,0.33072917)"
       id="text987-20"
       style="font-style:normal;font-variant:normal;font-weight:normal;font-stretch:normal;font-size:2.11666656px;line-height:1.25;font-family:Impact;-inkscape-font-specification:Impact;letter-spacing:0px;word-spacing:0px;fill:#ffffff;fill-opacity:1;stroke:none;stroke-width:0.26458332"
       aria-label="8">
      <path
         id="path1076"
         style="font-size:2.11666656px;fill:#ffffff;stroke-width:0.26458332"
         d="m 137.94974,166.86123 q 0.092,0.0372 0.14159,0.11162 0.0496,0.0734 0.0496,0.3514 0,0.20258 -0.0393,0.29869 -0.0393,0.0961 -0.15296,0.15813 -0.11369,0.061 -0.30489,0.061 -0.18604,0 -0.29456,-0.0589 -0.10852,-0.0589 -0.15606,-0.15606 -0.0465,-0.0971 -0.0465,-0.3235 0,-0.15192 0.0227,-0.26355 0.0238,-0.11162 0.14676,-0.1788 -0.0775,-0.0372 -0.11679,-0.11782 -0.0382,-0.0817 -0.0382,-0.2067 0,-0.21601 0.11989,-0.3235 0.11989,-0.10852 0.35863,-0.10852 0.27595,0 0.38137,0.11472 0.10542,0.11472 0.10542,0.32763 0,0.13539 -0.0351,0.19534 -0.0341,0.0599 -0.14159,0.11885 z m -0.23461,-0.35966 q 0,-0.0847 -0.0155,-0.11163 -0.0145,-0.0279 -0.0569,-0.0279 -0.0413,0 -0.0558,0.03 -0.0145,0.0289 -0.0145,0.10956 v 0.12712 q 0,0.0754 0.0165,0.10439 0.0165,0.0289 0.0558,0.0289 0.0413,0 0.0558,-0.0279 0.0145,-0.0289 0.0145,-0.11782 z m 0.008,0.69556 q 0,-0.0961 -0.0196,-0.12712 -0.0196,-0.032 -0.062,-0.032 -0.0413,0 -0.06,0.031 -0.0176,0.03 -0.0176,0.12816 v 0.21704 q 0,0.10852 0.0196,0.13953 0.0207,0.031 0.0641,0.031 0.0444,0 0.0599,-0.031 0.0155,-0.032 0.0155,-0.14263 z" />
    </g>
  </g>
</svg>
